<svg width="25" height="24" viewBox="0 0 25 24" fill="none" xmlns="http://www.w3.org/2000/svg">
<path d="M11.5723 16.3218L14.7504 19.4999L17.9285 16.3218" stroke="white" stroke-width="1.5" stroke-linecap="round" stroke-linejoin="round"/>
<path d="M14.75 12V19.5" stroke="white" stroke-width="1.5" stroke-linecap="round" stroke-linejoin="round"/>
<path d="M9.5 19.5H7.25C5.85761 19.5 4.52226 18.9469 3.53769 17.9623C2.55312 16.9777 2 15.6424 2 14.25C2 12.8576 2.55312 11.5223 3.53769 10.5377C4.52226 9.55312 5.85761 9 7.25 9C7.68925 8.99984 8.12687 9.05336 8.55313 9.15938" stroke="white" stroke-width="1.5" stroke-linecap="round" stroke-linejoin="round"/>
<path d="M8 12C8 10.8116 8.2824 9.64023 8.82393 8.5824C9.36545 7.52456 10.1506 6.61055 11.1147 5.91568C12.0787 5.22082 13.1941 4.765 14.3689 4.58578C15.5437 4.40656 16.7443 4.50907 17.8717 4.88488C18.9991 5.26068 20.0211 5.89901 20.8534 6.74726C21.6857 7.59552 22.3045 8.62941 22.6589 9.76374C23.0132 10.8981 23.0929 12.1004 22.8914 13.2716C22.6899 14.4427 22.213 15.5493 21.5 16.5" stroke="white" stroke-width="1.5" stroke-linecap="round" stroke-linejoin="round"/>
</svg>
