<svg width="24" height="24" viewBox="0 0 24 24" fill="none" xmlns="http://www.w3.org/2000/svg">
<path d="M3.19681 13.1907C2.35621 11.7744 2.06157 10.1001 2.36823 8.48195C2.6749 6.86385 3.56176 5.41337 4.86226 4.40294C6.16277 3.3925 7.78743 2.89162 9.43112 2.99438C11.0748 3.09713 12.6245 3.79645 13.789 4.96098C14.9535 6.12552 15.6528 7.67516 15.7556 9.31885C15.8584 10.9625 15.3575 12.5872 14.347 13.8877C13.3366 15.1882 11.8861 16.0751 10.268 16.3817C8.64992 16.6884 6.97553 16.3938 5.55931 15.5532L3.22494 16.2188C3.12875 16.2458 3.02711 16.2468 2.93044 16.2215C2.83378 16.1962 2.74559 16.1457 2.67494 16.075C2.6043 16.0044 2.55374 15.9162 2.52847 15.8195C2.50321 15.7229 2.50414 15.6212 2.53119 15.525L3.19681 13.1907Z" stroke="white" stroke-width="1.5" stroke-linecap="round" stroke-linejoin="round"/>
<path d="M8.63477 16.4905C8.96518 17.4326 9.50072 18.2895 10.2027 18.9993C10.9047 19.7091 11.7556 20.2542 12.6939 20.5951C13.6322 20.9359 14.6345 21.0641 15.6284 20.9704C16.6223 20.8767 17.583 20.5633 18.441 20.053V20.053L20.7754 20.7187C20.8716 20.7457 20.9732 20.7466 21.0699 20.7214C21.1665 20.6961 21.2547 20.6455 21.3254 20.5749C21.396 20.5042 21.4466 20.4161 21.4719 20.3194C21.4971 20.2227 21.4962 20.1211 21.4691 20.0249L20.8035 17.6905C21.3978 16.693 21.7243 15.559 21.7514 14.3982C21.7786 13.2374 21.5054 12.0893 20.9584 11.0652C20.4115 10.041 19.6092 9.17547 18.6294 8.55248C17.6496 7.92949 16.5255 7.57015 15.366 7.50928" stroke="white" stroke-width="1.5" stroke-linecap="round" stroke-linejoin="round"/>
</svg>
