<svg width="40" height="40" viewBox="0 0 40 40" fill="none" xmlns="http://www.w3.org/2000/svg">
<g clip-path="url(#clip0_408_20409)">
<path fill-rule="evenodd" clip-rule="evenodd" d="M10 3.49206V36.5079C10 38.4366 11.539 40 13.4375 40H36.5625C38.461 40 40 38.4366 40 36.5079V9.18908C40 8.25627 39.6326 7.36224 38.9798 6.70629L33.3098 1.00927C32.6662 0.362663 31.7976 0 30.8925 0H13.4375C11.539 0 10 1.56345 10 3.49206ZM12.1875 36.5079V3.49206C12.1875 2.79075 12.7471 2.22222 13.4375 2.22222H30.4688V9.84127C30.4688 11.1562 31.5181 12.2222 32.8125 12.2222H37.8125V36.5079C37.8125 37.2093 37.2529 37.7778 36.5625 37.7778H13.4375C12.7471 37.7778 12.1875 37.2093 12.1875 36.5079ZM37.8125 10V9.18908C37.8125 8.84988 37.6789 8.52478 37.4415 8.28625L32.6562 3.47818V9.84127C32.6562 9.92893 32.7262 10 32.8125 10H37.8125Z" fill="#0D6389"/>
<path fill-rule="evenodd" clip-rule="evenodd" d="M25.625 16.4062C25.625 15.8022 26.1147 15.3125 26.7188 15.3125H33.9062C34.5103 15.3125 35 15.8022 35 16.4062C35 17.0103 34.5103 17.5 33.9062 17.5H26.7188C26.1147 17.5 25.625 17.0103 25.625 16.4062Z" fill="#69C997"/>
<path fill-rule="evenodd" clip-rule="evenodd" d="M25.625 21.4062C25.625 20.8022 26.1147 20.3125 26.7188 20.3125H33.9062C34.5103 20.3125 35 20.8022 35 21.4062C35 22.0103 34.5103 22.5 33.9062 22.5H26.7188C26.1147 22.5 25.625 22.0103 25.625 21.4062Z" fill="#54AD7D"/>
<path fill-rule="evenodd" clip-rule="evenodd" d="M25.625 26.4062C25.625 25.8022 26.1147 25.3125 26.7188 25.3125H33.9062C34.5103 25.3125 35 25.8022 35 26.4062C35 27.0103 34.5103 27.5 33.9062 27.5H26.7188C26.1147 27.5 25.625 27.0103 25.625 26.4062Z" fill="#2B593D"/>
<path d="M0 11.5625C0 10.527 0.839466 9.6875 1.875 9.6875H20.625C21.6605 9.6875 22.5 10.527 22.5 11.5625V30.3125C22.5 31.348 21.6605 32.1875 20.625 32.1875H1.875C0.839466 32.1875 0 31.348 0 30.3125V11.5625Z" fill="#3D8A58"/>
<path d="M6.25 27.2144L9.76196 20.6775L6.57471 14.6875H9.00146L11.0608 18.7122L13.0774 14.6875H15.4785L12.2913 20.7715L15.8032 27.2144H13.2996L11.0181 22.8821L8.73657 27.2144H6.25Z" fill="white"/>
</g>
<defs>
<clipPath id="clip0_408_20409">
<rect width="40" height="40" fill="white"/>
</clipPath>
</defs>
</svg>
