<svg width="38" height="40" viewBox="0 0 38 40" fill="none" xmlns="http://www.w3.org/2000/svg">
<path fill-rule="evenodd" clip-rule="evenodd" d="M8.36349 18.5532H29.7519V12.154H22.9378C22.2224 12.154 21.2269 11.7731 20.7554 11.3077C20.284 10.8422 19.9972 10.0024 19.9972 9.29937V2.48678H2.68344C2.6241 2.48678 2.57795 2.51607 2.54828 2.54537C2.49883 2.57792 2.48564 2.62023 2.48564 2.68207V37.3309C2.48564 37.3765 2.51531 37.4351 2.54498 37.4644C2.57465 37.51 2.63729 37.523 2.68014 37.523C10.1898 37.523 21.8301 37.523 29.5508 37.523C29.6101 37.523 29.6068 37.4937 29.6398 37.4644C29.686 37.4351 29.7486 37.3733 29.7486 37.3309V33.6984H8.36349C6.9987 33.6984 5.87126 32.5918 5.87126 31.2377V21.0107C5.87126 19.6599 6.99211 18.5532 8.36349 18.5532ZM15.1215 26.8045L17.1951 27.4229C17.0567 27.9958 16.8358 28.4775 16.5358 28.8616C16.2358 29.2457 15.8666 29.5386 15.4215 29.7339C14.9765 29.9292 14.4128 30.0269 13.7271 30.0269C12.893 30.0269 12.2139 29.9064 11.6865 29.6688C11.159 29.4279 10.7041 29.0081 10.3217 28.4091C9.93927 27.8102 9.74477 27.0388 9.74477 26.1014C9.74477 24.8515 10.081 23.8913 10.7535 23.2208C11.4293 22.5502 12.3821 22.215 13.615 22.215C14.5776 22.215 15.3391 22.407 15.8897 22.7911C16.4402 23.1752 16.8523 23.7676 17.1193 24.5651L15.0358 25.0208C14.9633 24.7929 14.8875 24.6236 14.8051 24.5195C14.6699 24.3405 14.5084 24.2038 14.3172 24.1094C14.126 24.0117 13.9117 23.9661 13.6743 23.9661C13.137 23.9661 12.7249 24.1777 12.4381 24.6041C12.2238 24.9198 12.115 25.4146 12.115 26.0884C12.115 26.9249 12.2436 27.4978 12.5007 27.8102C12.7579 28.1195 13.1205 28.2757 13.5886 28.2757C14.0403 28.2757 14.3831 28.152 14.6139 27.8981C14.8512 27.6442 15.0161 27.2829 15.1215 26.8045ZM17.9533 27.3969L20.1983 27.2569C20.2478 27.6149 20.3467 27.8916 20.495 28.0771C20.739 28.3831 21.0851 28.5361 21.54 28.5361C21.8763 28.5361 22.1367 28.458 22.318 28.3017C22.5026 28.1455 22.5917 27.9632 22.5917 27.7582C22.5917 27.5629 22.5059 27.3871 22.3345 27.2309C22.1631 27.0746 21.7576 26.9314 21.128 26.7914C20.0895 26.5636 19.3544 26.2576 18.9126 25.8735C18.4676 25.4927 18.2434 25.0077 18.2434 24.4153C18.2434 24.028 18.3588 23.6634 18.5863 23.3184C18.8137 22.9734 19.1566 22.7 19.6148 22.5047C20.073 22.3061 20.6994 22.2085 21.4972 22.2085C22.4763 22.2085 23.2213 22.3875 23.7323 22.7488C24.2466 23.1068 24.5498 23.6797 24.6487 24.4642L22.4235 24.5944C22.3642 24.2526 22.2389 24.002 22.051 23.8457C21.8598 23.6895 21.5994 23.6114 21.2664 23.6114C20.9928 23.6114 20.7851 23.6699 20.6434 23.7839C20.5049 23.8978 20.4357 24.0378 20.4357 24.2038C20.4357 24.3242 20.4917 24.4316 20.6038 24.526C20.7126 24.6269 20.9763 24.718 21.3917 24.8027C22.4268 25.024 23.1653 25.2453 23.6103 25.4699C24.0586 25.6945 24.385 25.9744 24.5861 26.3065C24.7905 26.6385 24.8894 27.0128 24.8894 27.4262C24.8894 27.9111 24.7542 28.3571 24.4839 28.7672C24.2103 29.1741 23.8345 29.4865 23.3466 29.6981C22.8587 29.9097 22.2455 30.0138 21.5071 30.0138C20.2049 30.0138 19.3049 29.7665 18.8039 29.2717C18.3028 28.7867 18.0193 28.1585 17.9533 27.3969ZM25.3509 22.3387H27.8234L29.5475 27.7777L31.2485 22.3387H33.6485L30.8068 29.8967H28.2453L25.3509 22.3387ZM32.2342 18.5532H35.5078C36.8792 18.5532 38 19.6631 38 21.0139V31.2409C38 32.5918 36.8759 33.7017 35.5078 33.7017H32.2342V38.1121C32.2342 38.6362 32.02 39.1016 31.6738 39.4467C31.3244 39.7917 30.853 40 30.3222 40C20.617 40 11.6667 40 1.91203 40C1.38128 40 0.909864 39.7917 0.560423 39.4467C0.210983 39.1016 0 38.6362 0 38.1121V1.90414C0 1.3801 0.21428 0.914639 0.560423 0.569615C0.909864 0.224591 1.39447 0.0162747 1.91203 0.0162747H21.2697C21.3126 0 21.3587 0 21.4049 0C21.6159 0 21.8301 0.0911384 21.9818 0.224591H22.0114C22.0411 0.240866 22.0576 0.253886 22.0873 0.28318L31.9738 10.1652C32.1419 10.3312 32.2639 10.5558 32.2639 10.8097C32.2639 10.8845 32.2474 10.9431 32.2342 11.0212V18.5532ZM22.2554 9.10408V2.90992L29.32 9.97315H23.1356C22.8916 9.97315 22.6807 9.86899 22.5125 9.71926C22.3609 9.56953 22.2554 9.34494 22.2554 9.10408Z" fill="#0D6389"/>
</svg>
