<svg width="40" height="40" viewBox="0 0 40 40" fill="none" xmlns="http://www.w3.org/2000/svg">
<g clip-path="url(#clip0_408_20556)">
<path d="M10 5.20734V5.20732C9.99996 2.91213 11.9726 1 14.3387 1H27.3168L38 12.3955V34.7926C38 37.1175 36.1137 39 33.7878 39H14.2222C11.8851 39 10 37.1162 10 34.7926V5.20734Z" fill="white" stroke="#3B3C40" stroke-width="2"/>
<path d="M28.5173 8.61615L28.524 8.55827V8.5V2.61011L36.5078 11.5H31.266C29.8905 11.5 29.2489 10.9806 28.9156 10.4605C28.5385 9.87191 28.4583 9.1206 28.5173 8.61615Z" fill="white" stroke="#3B3C40" stroke-width="2"/>
<rect y="13" width="25" height="12" rx="2" fill="#D92D20"/>
<path d="M4.24907 22.5V15.9545H6.83145C7.3279 15.9545 7.75084 16.0494 8.10028 16.239C8.44971 16.4265 8.71604 16.6875 8.89928 17.022C9.08465 17.3544 9.17734 17.7379 9.17734 18.1726C9.17734 18.6072 9.08359 18.9908 8.89609 19.3232C8.70859 19.6555 8.43692 19.9144 8.0811 20.0998C7.72741 20.2852 7.29914 20.3778 6.7963 20.3778H5.15035V19.2688H6.57258C6.83891 19.2688 7.05837 19.223 7.23096 19.1314C7.40567 19.0376 7.53564 18.9087 7.62087 18.7447C7.70823 18.5785 7.75191 18.3878 7.75191 18.1726C7.75191 17.9553 7.70823 17.7656 7.62087 17.6037C7.53564 17.4396 7.40567 17.3129 7.23096 17.2234C7.05624 17.1317 6.83465 17.0859 6.56618 17.0859H5.63295V22.5H4.24907ZM12.3965 22.5H10.0762V15.9545H12.4157C13.0741 15.9545 13.6408 16.0856 14.116 16.3477C14.5911 16.6076 14.9565 16.9815 15.2122 17.4695C15.47 17.9574 15.5989 18.5412 15.5989 19.2209C15.5989 19.9027 15.47 20.4886 15.2122 20.9787C14.9565 21.4687 14.589 21.8448 14.1096 22.1069C13.6323 22.369 13.0613 22.5 12.3965 22.5ZM11.4601 21.3143H12.339C12.7481 21.3143 13.0922 21.2418 13.3713 21.0969C13.6526 20.9499 13.8635 20.723 14.0041 20.4162C14.1469 20.1072 14.2183 19.7088 14.2183 19.2209C14.2183 18.7372 14.1469 18.342 14.0041 18.0352C13.8635 17.7283 13.6536 17.5025 13.3745 17.3576C13.0954 17.2127 12.7513 17.1403 12.3422 17.1403H11.4601V21.3143ZM16.6241 22.5V15.9545H20.9579V17.0955H18.0079V18.6552H20.6702V19.7962H18.0079V22.5H16.6241Z" fill="white"/>
</g>
<defs>
<clipPath id="clip0_408_20556">
<rect width="40" height="40" fill="white"/>
</clipPath>
</defs>
</svg>
