<svg width="25" height="24" viewBox="0 0 25 24" fill="none" xmlns="http://www.w3.org/2000/svg">
<path d="M18.5 18.75V21" stroke="white" stroke-width="1.5" stroke-linecap="round" stroke-linejoin="round"/>
<path d="M6.5 18.75V21" stroke="white" stroke-width="1.5" stroke-linecap="round" stroke-linejoin="round"/>
<path d="M20.75 4.5H4.25C3.83579 4.5 3.5 4.83579 3.5 5.25V18C3.5 18.4142 3.83579 18.75 4.25 18.75H20.75C21.1642 18.75 21.5 18.4142 21.5 18V5.25C21.5 4.83579 21.1642 4.5 20.75 4.5Z" stroke="white" stroke-width="1.5" stroke-linecap="round" stroke-linejoin="round"/>
<path d="M15.5 12C15.5 12.4142 15.1642 12.75 14.75 12.75C14.3358 12.75 14 12.4142 14 12C14 11.5858 14.3358 11.25 14.75 11.25C15.1642 11.25 15.5 11.5858 15.5 12Z" fill="white" stroke="white" stroke-width="1.5"/>
<path d="M14.75 12H21.5" stroke="white" stroke-width="1.5" stroke-linecap="round" stroke-linejoin="round"/>
<path d="M14.75 15.75C16.8211 15.75 18.5 14.0711 18.5 12C18.5 9.92893 16.8211 8.25 14.75 8.25C12.6789 8.25 11 9.92893 11 12C11 14.0711 12.6789 15.75 14.75 15.75Z" stroke="white" stroke-width="1.5" stroke-linecap="round" stroke-linejoin="round"/>
</svg>
