<svg xmlns="http://www.w3.org/2000/svg" xml:space="preserve" enable-background="new 0 0 100 100" version="1.0" viewBox="0 0 100 100" id="archive">
  <g id="archive-square">
    <path d="M83.333,16.667H16.667c-4.596,0-8.333,3.737-8.333,8.333v8.333c0,4.596,3.737,8.333,8.333,8.333V75
		c0,4.594,3.737,8.333,8.333,8.333h50c4.594,0,8.333-3.739,8.333-8.333V41.667c4.594,0,8.333-3.737,8.333-8.333V25
		C91.667,20.404,87.927,16.667,83.333,16.667z M75.008,75H25V41.667h50L75.008,75z M16.667,33.333V25h66.667l0.004,8.333H16.667z
		 M37.5,58.333c0-2.303,1.866-4.167,4.167-4.167h16.667c2.303,0,4.167,1.864,4.167,4.167c0,2.303-1.864,4.167-4.167,4.167H41.667
		C39.366,62.5,37.5,60.636,37.5,58.333z"></path>
  </g>
</svg>
