<svg width="40" height="40" viewBox="0 0 40 40" fill="none" xmlns="http://www.w3.org/2000/svg">
<path d="M16.2499 12.5V31.8281C16.2519 32.0359 16.2013 32.2407 16.103 32.4237C16.0046 32.6067 15.8617 32.7619 15.6874 32.875L13.9687 34.0156C13.8022 34.1268 13.6114 34.1963 13.4124 34.2184C13.2134 34.2405 13.0121 34.2144 12.8252 34.1425C12.6384 34.0705 12.4716 33.9547 12.3389 33.8048C12.2061 33.655 12.1113 33.4754 12.0624 33.2812L9.99995 25" stroke="#0D6389" stroke-width="1.5" stroke-linecap="round" stroke-linejoin="round"/>
<path d="M10 25C8.3424 25 6.75269 24.3415 5.58058 23.1694C4.40848 21.9973 3.75 20.4076 3.75 18.75C3.75 17.0924 4.40848 15.5027 5.58058 14.3306C6.75269 13.1585 8.3424 12.5 10 12.5H16.25C16.25 12.5 24.7656 12.5 32.9531 5.64061C33.1352 5.48991 33.3563 5.39394 33.5908 5.36382C33.8252 5.33371 34.0634 5.37069 34.2777 5.47047C34.492 5.57025 34.6736 5.72874 34.8014 5.92756C34.9293 6.12637 34.9981 6.35737 35 6.59373V30.9062C34.9981 31.1426 34.9293 31.3736 34.8014 31.5724C34.6736 31.7712 34.492 31.9297 34.2777 32.0295C34.0634 32.1293 33.8252 32.1663 33.5908 32.1361C33.3563 32.106 33.1352 32.0101 32.9531 31.8594C24.7656 25 16.25 25 16.25 25H10Z" stroke="#0D6389" stroke-width="1.5" stroke-linecap="round" stroke-linejoin="round"/>
</svg>
