<svg width="40" height="40" viewBox="0 0 40 40" fill="none" xmlns="http://www.w3.org/2000/svg">
<path d="M33.3333 13.3333C33.3333 11.4924 31.8409 10 30 10C28.1591 10 26.6667 11.4924 26.6667 13.3333V26.6667C26.6667 28.5076 28.1591 30 30 30C31.8409 30 33.3333 28.5076 33.3333 26.6667V13.3333Z" stroke="#0D6389" stroke-width="2" stroke-linecap="round" stroke-linejoin="round"/>
<path d="M26.6667 16.6667H10C8.15905 16.6667 6.66667 18.1591 6.66667 20V20C6.66667 21.8409 8.15905 23.3333 10 23.3333H26.6667" stroke="#0D6389" stroke-width="2" stroke-linecap="round" stroke-linejoin="round"/>
<path d="M16.6667 23.3333V26.6667C16.6667 28.5076 14.8076 30 12.5 30H12.5C10.1924 30 8.33333 28.5076 8.33333 26.6667V23.3333" stroke="#0D6389" stroke-width="2" stroke-linecap="round" stroke-linejoin="round"/>
<path d="M33.3333 16.6667C35.1743 16.6667 36.6667 15.1743 36.6667 13.3333C36.6667 11.4924 35.1743 10 33.3333 10" stroke="#0D6389" stroke-width="2" stroke-linecap="round" stroke-linejoin="round"/>
<path d="M33.3333 30C35.1743 30 36.6667 28.5076 36.6667 26.6667C36.6667 24.8257 35.1743 23.3333 33.3333 23.3333" stroke="#0D6389" stroke-width="2" stroke-linecap="round" stroke-linejoin="round"/>
</svg>
