<svg width="65" height="64" viewBox="0 0 65 64" fill="none" xmlns="http://www.w3.org/2000/svg">
<path d="M45.8327 56V50.6667C45.8327 47.8377 44.7089 45.1246 42.7085 43.1242C40.7081 41.1238 37.995 40 35.166 40H13.8327C11.0037 40 8.2906 41.1238 6.29021 43.1242C4.28982 45.1246 3.16602 47.8377 3.16602 50.6667V56" stroke="#25B7AA" stroke-width="2" stroke-linecap="round" stroke-linejoin="round"/>
<path d="M24.5007 29.3333C30.3917 29.3333 35.1673 24.5577 35.1673 18.6667C35.1673 12.7756 30.3917 8 24.5007 8C18.6096 8 13.834 12.7756 13.834 18.6667C13.834 24.5577 18.6096 29.3333 24.5007 29.3333Z" stroke="#25B7AA" stroke-width="2" stroke-linecap="round" stroke-linejoin="round"/>
<path d="M61.834 56V50.6667C61.8322 48.3033 61.0456 46.0074 59.5976 44.1395C58.1497 42.2716 56.1223 40.9375 53.834 40.3467" stroke="#114BAF" stroke-width="2" stroke-linecap="round" stroke-linejoin="round"/>
<path d="M43.166 8.34667C45.4605 8.93414 47.4941 10.2685 48.9464 12.1395C50.3987 14.0105 51.1869 16.3115 51.1869 18.68C51.1869 21.0485 50.3987 23.3495 48.9464 25.2205C47.4941 27.0915 45.4605 28.4259 43.166 29.0133" stroke="#114BAF" stroke-width="2" stroke-linecap="round" stroke-linejoin="round"/>
</svg>
